<?xml version="1.0" encoding="utf-8"?>
<svg xmlns="http://www.w3.org/2000/svg"
  xmlns:xlink="http://www.w3.org/1999/xlink" x="0px" y="0px" width="800px" height="800px" viewBox="0 0 800 800" enable-background="new 0 0 800 800" xml:space="preserve">
  <path fill="#175DDC" d="M718.518,798.147H81.482c-44.05,0-79.629-35.579-79.629-79.629V81.482c0-44.05,35.579-79.629,79.629-79.629
	h637.035c44.05,0,79.629,35.579,79.629,79.629v637.035C798.147,760.874,762.568,798.147,718.518,798.147z M110.284,134.004v530.298
	c0,15.248,11.86,27.108,27.108,27.108h528.604c15.248,0,27.108-11.86,27.108-27.108V134.004c0-15.248-11.86-27.108-27.108-27.108
	H135.698C122.144,108.59,110.284,120.45,110.284,134.004z"/>
  <rect x="90.662" y="95.617" fill="#175DDC" width="614.471" height="607.864"/>
  <polygon fill="#FFFFFF" stroke="#FFFFFF" stroke-width="8" stroke-miterlimit="10" points="614.364,323.844 572.761,251.801
		441.617,327.536 441.617,176.109 358.413,176.109 358.413,327.562 227.239,251.827 185.636,323.879 316.777,399.597
		185.671,475.306 227.273,547.35 358.413,471.615 358.413,623.103 441.617,623.103 441.617,471.668 572.727,547.385
		614.329,475.333 483.171,399.597 	"/>
</svg>
