<?xml version="1.0" encoding="utf-8"?>
<svg fill="#175DDC" stroke="#175DDC"
  xmlns="http://www.w3.org/2000/svg"
  xmlns:xlink="http://www.w3.org/1999/xlink" x="0px" y="0px" width="800px" height="800px" viewBox="0 0 800 800" enable-background="new 0 0 800 800" xml:space="preserve">
  <path stroke-width="0" d="M689.231,761.538H110.769c-40,0-72.308-32.308-72.308-72.308V110.769c0-40,32.308-72.308,72.308-72.308
	h578.462c40,0,72.308,32.308,72.308,72.308v578.461C761.538,727.692,729.231,761.538,689.231,761.538z M136.923,158.462V640
	c0,13.846,10.769,24.615,24.615,24.615h480c13.846,0,24.615-10.769,24.615-24.615V158.462c0-13.846-10.769-24.615-24.615-24.615H160
	C147.692,135.385,136.923,146.154,136.923,158.462z"/>
  <polygon stroke-width="8" stroke-miterlimit="10" points="581.155,335.618 545.997,274.735
  435.169,338.737 435.169,210.769 364.856,210.769 364.856,338.759 254.003,274.757 218.845,335.647 329.67,399.634
  218.875,463.615 254.032,524.498 364.856,460.496 364.856,588.515 435.169,588.515 435.169,460.54 545.968,524.527
  581.125,463.637 470.286,399.634 "/>
</svg>
